<svg width="178" height="32" viewBox="0 0 178 32" fill="none" xmlns="http://www.w3.org/2000/svg">
<path fill-rule="evenodd" clip-rule="evenodd" d="M19.6529 17.0095H6.16333V25.3979C6.16333 25.7474 6.24085 26.0192 6.39591 26.1746C6.55096 26.3688 6.86106 26.5241 7.24869 26.6018V27.1843H0V26.6406C0.387631 26.5241 0.697736 26.3688 0.852788 26.2134C1.00784 26.0192 1.08537 25.7862 1.08537 25.4367V5.63091C1.08537 5.28139 1.00784 5.00955 0.852788 4.85421C0.697736 4.66003 0.387631 4.54353 0 4.38819V3.80566H7.28746V4.38819C6.89983 4.50469 6.58972 4.6212 6.43467 4.81537C6.27962 5.00955 6.20209 5.28139 6.20209 5.59207V13.126H19.6529V5.63091C19.6529 5.28139 19.5753 5.00955 19.4203 4.85421C19.2652 4.66003 18.9939 4.50469 18.5675 4.42702V3.8445H25.855V4.42702C25.4286 4.54353 25.1572 4.69887 25.0022 4.89304C24.8471 5.08722 24.7696 5.32023 24.7696 5.66974V25.4756C24.7696 25.8251 24.8471 26.0969 25.0022 26.2523C25.1572 26.4464 25.4286 26.6018 25.855 26.6794V27.262H18.5287V26.6406C18.9164 26.5241 19.1877 26.4076 19.3815 26.2134C19.5366 26.0192 19.6141 25.7474 19.6141 25.4367V17.0095H19.6529Z" fill="#223D7A"/>
<path fill-rule="evenodd" clip-rule="evenodd" d="M85.007 5.78596L82.2161 11.3005L81.7509 11.0287C81.7509 10.9122 81.7509 10.8345 81.7509 10.7568C81.7509 10.3685 81.402 9.9413 80.7431 9.51411C78.6886 8.11605 76.3241 7.37819 73.5719 7.37819C72.3702 7.37819 71.2849 7.53353 70.3546 7.80537C69.6956 8.03838 69.1529 8.3879 68.7265 8.81508C68.3001 9.2811 68.1063 9.78596 68.1063 10.2908C68.1063 11.184 68.649 11.7665 69.6956 12.0772C70.2383 12.2326 71.4012 12.3879 73.223 12.5821L75.8977 12.8539C77.487 13.0481 78.8049 13.2423 79.774 13.5529C80.7431 13.8636 81.6346 14.2908 82.4099 14.7957C83.1851 15.3394 83.8053 16.0772 84.2705 17.0093C84.6969 17.9413 84.9295 18.9122 84.9295 19.9219C84.9295 21.5529 84.3868 23.0287 83.3402 24.3102C82.3711 25.4753 80.8981 26.3296 78.8824 26.9122C77.3707 27.3394 75.7814 27.5335 74.037 27.5335C70.936 27.5335 67.9125 26.7957 64.889 25.3199C64.23 25.0093 63.8811 24.8539 63.7261 24.8539C63.571 24.8539 63.3384 24.9704 63.0283 25.2423L62.5244 24.9704L65.0828 19.2229L65.5867 19.4559C65.5867 19.5335 65.5867 19.65 65.5867 19.6889C65.5867 20.1937 65.8193 20.6986 66.3232 21.1258C67.0597 21.786 68.2226 22.3685 69.7731 22.8345C71.3236 23.3005 72.7966 23.5335 74.1921 23.5335C75.7039 23.5335 77.0218 23.2617 78.0684 22.7568C78.6499 22.485 79.1538 22.0966 79.5026 21.6306C79.8515 21.1646 80.0453 20.6597 80.0453 20.1549C80.0453 19.3782 79.6189 18.8345 78.8049 18.485C78.2235 18.252 77.0606 18.0578 75.2775 17.8636L72.6416 17.5918C70.8585 17.3976 69.6181 17.2423 68.8816 17.0869C68.1451 16.9316 67.4086 16.6597 66.7108 16.3102C65.6642 15.8054 64.8502 15.0287 64.2688 13.9801C63.7261 13.0481 63.4547 11.9995 63.4547 10.7957C63.4547 8.81508 64.1525 7.18402 65.5092 5.90246C67.2923 4.19372 69.9669 3.33936 73.5331 3.33936C75.0061 3.33936 76.4016 3.4947 77.7195 3.80537C78.9987 4.11605 80.6268 4.65974 82.5262 5.47528C83.1851 5.74712 83.5728 5.86363 83.7278 5.86363C83.9604 5.86363 84.2317 5.74712 84.5806 5.47528L85.007 5.78596Z" fill="#223D7A"/>
<path fill-rule="evenodd" clip-rule="evenodd" d="M96.3261 17.6697V25.4367C96.3261 25.7862 96.4036 26.0581 96.5587 26.2134C96.7525 26.4076 97.0239 26.5629 97.4115 26.6406V27.2231H90.124V26.6406C90.5504 26.5241 90.8218 26.3688 90.9768 26.2134C91.1319 26.0193 91.2094 25.7862 91.2094 25.4367V5.66974C91.2094 5.32023 91.1319 5.04838 90.9768 4.85421C90.8218 4.66003 90.5504 4.54353 90.124 4.38819V3.80566H104.738C106.521 3.80566 107.916 3.92217 108.963 4.11634C110.009 4.31052 110.901 4.66003 111.676 5.20372C112.568 5.78625 113.266 6.60178 113.692 7.61149C114.118 8.58236 114.312 9.63091 114.312 10.7571C114.312 14.5629 112.18 16.8154 107.955 17.4367L112.529 23.9222C113.304 25.0484 113.886 25.7862 114.273 26.0969C114.622 26.4076 115.087 26.6018 115.63 26.6406V27.2231H107.219V26.6406C107.8 26.5629 108.071 26.3299 108.071 26.0193C108.071 25.8251 107.8 25.3202 107.257 24.5435L102.528 17.6697H96.3261ZM96.3261 13.8251H104.195C105.358 13.8251 106.172 13.7862 106.676 13.7086C107.141 13.6309 107.567 13.4756 107.994 13.2814C108.847 12.8154 109.273 11.961 109.273 10.7571C109.273 9.55324 108.847 8.69887 107.994 8.23285C107.606 7.99984 107.141 7.8445 106.676 7.80566C106.211 7.76683 105.397 7.72799 104.195 7.72799H96.3261V13.8251Z" fill="#223D7A"/>
<path fill-rule="evenodd" clip-rule="evenodd" d="M126.251 16.9319V23.3396H141.253C141.601 23.3396 141.834 23.2619 142.028 23.1066C142.222 22.9513 142.338 22.6794 142.454 22.2522H143.036V28.3105H142.454C142.338 27.9221 142.183 27.6115 142.028 27.4561C141.834 27.3008 141.601 27.2231 141.253 27.2231H120.088V26.6406C120.514 26.5241 120.786 26.3687 120.941 26.2134C121.096 26.0192 121.173 25.7474 121.173 25.3979V5.66972C121.173 5.3202 121.096 5.04836 120.941 4.85418C120.786 4.66001 120.476 4.5435 120.088 4.38816V3.80564H140.865C141.214 3.80564 141.446 3.72797 141.64 3.57263C141.834 3.41729 141.989 3.14545 142.067 2.71826H142.648V8.77651H142.067C141.95 8.38816 141.795 8.07748 141.64 7.92214C141.446 7.76681 141.175 7.68914 140.865 7.68914H126.29V13.2425H135.709C136.058 13.2425 136.33 13.1649 136.485 13.0095C136.678 12.8542 136.795 12.5435 136.911 12.1552H137.493V18.0581H136.911C136.795 17.6309 136.64 17.359 136.485 17.2037C136.33 17.0484 136.058 16.9707 135.709 16.9707H126.251V16.9319Z" fill="#223D7A"/>
<path fill-rule="evenodd" clip-rule="evenodd" d="M162.689 27.2231L154.083 11.0678V25.3979C154.083 25.7474 154.161 26.0193 154.316 26.2134C154.471 26.4076 154.742 26.5629 155.169 26.6406V27.2231H148.308V26.6406C148.734 26.5241 149.005 26.3688 149.16 26.2134C149.315 26.0193 149.393 25.7474 149.393 25.3979V5.63091C149.393 5.28139 149.315 5.00955 149.16 4.85421C149.005 4.66003 148.734 4.54353 148.308 4.38819V3.80566H157.339V4.38819C156.797 4.54353 156.525 4.85421 156.525 5.32023C156.525 5.55324 156.603 5.82508 156.758 6.09693L163.154 18.1358L169.589 6.2911C169.899 5.74741 170.015 5.3979 170.015 5.16489C170.015 4.69887 169.744 4.42702 169.162 4.38819V3.80566H178V4.38819C177.574 4.50469 177.302 4.66003 177.147 4.85421C176.992 5.04838 176.915 5.28139 176.915 5.63091V25.3979C176.915 25.7474 176.992 26.0193 177.147 26.2134C177.302 26.4076 177.574 26.5629 178 26.6406V27.2231H170.713V26.6406C171.1 26.5241 171.372 26.4076 171.565 26.2134C171.721 26.0193 171.798 25.7474 171.798 25.3979V11.0678L162.689 27.2231Z" fill="#223D7A"/>
<path fill-rule="evenodd" clip-rule="evenodd" d="M45.5856 0C54.4236 0 61.556 7.14563 61.556 16C61.556 24.8544 54.4236 32 45.5856 32C36.7864 32 29.6152 24.8544 29.6152 16C29.6152 7.14563 36.7476 0 45.5856 0Z" fill="#223D7A"/>
<path fill-rule="evenodd" clip-rule="evenodd" d="M45.585 5.24268C51.5158 5.24268 56.3224 10.0582 56.3224 16C56.3224 21.9417 51.5158 26.7572 45.585 26.7572C39.6543 26.7572 34.8477 21.9417 34.8477 16C34.8477 10.0582 39.6543 5.24268 45.585 5.24268Z" fill="white"/>
<path fill-rule="evenodd" clip-rule="evenodd" d="M45.5849 5.98047C51.128 5.98047 55.5857 10.4853 55.5857 15.9999C55.5857 21.5533 51.128 26.0193 45.5849 26.0193C40.0417 26.0193 35.584 21.5533 35.584 15.9999C35.584 10.4853 40.0417 5.98047 45.5849 5.98047Z" fill="#223D7A"/>
<path d="M61.4006 17.0872C60.1214 18.6794 58.726 18.7183 57.253 18.2134C55.3923 17.5921 54.0356 16.5047 52.175 15.8445C50.8958 15.4173 49.5391 15.1843 48.1436 15.6503C47.6785 15.1455 46.6706 14.8736 45.5853 15.029C44.151 15.262 43.1044 16.1163 43.2207 17.0095C43.3758 17.9027 44.6162 18.4076 46.0892 18.2134C47.4071 18.0193 48.415 17.2426 48.415 16.427C50.3531 15.9222 52.6014 16.7377 54.3845 17.7086C57.0979 19.1455 59.4237 19.6892 61.5169 17.1261L61.4006 17.0872Z" fill="white"/>
<path d="M36.5533 21.825H54.5781C54.7719 21.5143 54.9658 21.1648 55.1596 20.8153H35.9718C36.1657 21.2037 36.3595 21.5143 36.5533 21.825ZM41.3212 25.8639H49.849C50.4692 25.592 51.0894 25.2425 51.6709 24.8542H39.5381C40.0807 25.2813 40.6622 25.592 41.3212 25.8639ZM38.2589 23.8444H52.9113C53.2602 23.5338 53.5703 23.2231 53.8804 22.8347H37.3286C37.5999 23.2231 37.91 23.5338 38.2589 23.8444ZM35.5455 19.8056H55.6247C55.741 19.4949 55.8573 19.1454 55.9348 18.7959H35.2354C35.3129 19.1454 35.4292 19.4949 35.5455 19.8056Z" fill="white"/>
<path d="M35.546 19.8444H30.0804C30.1579 20.1939 30.2742 20.5046 30.3517 20.8541H35.9724C35.8173 20.5046 35.6623 20.1939 35.546 19.8444ZM35.0033 17.825H29.6928C29.7315 18.1745 29.809 18.4852 29.8478 18.8347H35.1971C35.1196 18.4852 35.0808 18.1356 35.0033 17.825ZM38.2594 23.8832H31.6697C31.8635 24.2327 32.0573 24.5434 32.2899 24.8929H39.4998C39.0734 24.5823 38.647 24.2327 38.2594 23.8832ZM61.5172 14.7958C61.4785 14.4463 61.4397 14.1356 61.4009 13.7861H56.0904C56.1679 14.1356 56.2067 14.4463 56.2455 14.7958H61.5172ZM34.8482 15.9997V15.8055H29.6152V15.9997C29.6152 16.2716 29.6152 16.5434 29.6152 16.8153H34.8482C34.8482 16.5434 34.8482 16.2716 34.8482 15.9997ZM39.8099 30.9124H51.3225C52.059 30.6017 52.7568 30.291 53.4545 29.9026H37.7167C38.4144 30.291 39.0734 30.6405 39.8099 30.9124ZM35.0808 13.7861H29.7703C29.7315 14.1356 29.6928 14.4463 29.654 14.7958H34.9258C34.9645 14.4463 35.0033 14.0968 35.0808 13.7861ZM36.5538 21.8638H30.7006C30.8169 22.2133 30.9719 22.524 31.127 22.8735H37.2903C37.019 22.524 36.7864 22.1745 36.5538 21.8638ZM55.1601 20.8153H60.7807C60.897 20.5046 60.9745 20.1551 61.0521 19.8056H55.5865C55.4702 20.1939 55.3539 20.5046 55.1601 20.8153ZM61.556 15.8055H56.323V15.9997C56.323 16.2716 56.2842 16.5434 56.2842 16.8153H61.556C61.556 16.5434 61.556 16.2716 61.556 15.9997V15.8055ZM36.1274 28.8929H55.005C55.4314 28.5823 55.8578 28.2716 56.2455 27.8832H34.9258C35.3134 28.2716 35.701 28.5823 36.1274 28.8929ZM45.5856 26.757C44.0739 26.757 42.6396 26.4463 41.3217 25.9026H33.0264C33.2977 26.2522 33.5691 26.5628 33.8792 26.9123H57.2921C57.6022 26.6017 57.8735 26.2522 58.1448 25.9026H49.8496C48.5316 26.4463 47.0974 26.757 45.5856 26.757ZM53.8809 22.8347H60.0442C60.1993 22.524 60.3156 22.1745 60.4706 21.825H54.6174C54.3848 22.1745 54.1135 22.524 53.8809 22.8347ZM51.6714 24.8541H58.8813C59.1139 24.5434 59.3077 24.1939 59.5015 23.8444H52.9118C52.5242 24.2327 52.0978 24.5823 51.6714 24.8541Z" fill="white"/>
</svg>
